<svg xmlns="http://www.w3.org/2000/svg"  viewBox="0 0 72 72" ><path d="M 36 17 C 16.805 17 14.24125 17.197891 11.78125 19.712891 C 9.32125 22.226891 9 26.223 9 36 C 9 45.777 9.32125 49.772109 11.78125 52.287109 C 14.24125 54.802109 16.805 55 36 55 C 55.195 55 57.75875 54.802109 60.21875 52.287109 C 62.67875 49.772109 63 45.777 63 36 C 63 26.223 62.67875 22.226891 60.21875 19.712891 C 57.75875 17.197891 55.195 17 36 17 z M 44.160156 24.996094 C 50.693781 25.009219 52.713453 25.130266 53.533203 25.884766 C 54.627203 26.889766 55 29.586 55 36 C 55 42.414 54.627203 45.110234 53.533203 46.115234 C 52.440203 47.121234 49.215 47 36 47 C 22.785 47 19.560797 47.120234 18.466797 46.115234 C 17.372797 45.110234 17 42.414 17 36 C 17 29.586 17.534797 26.803766 18.466797 25.884766 C 19.398797 24.965766 22.785 25 36 25 C 39.30375 25 41.982281 24.991719 44.160156 24.996094 z M 31.445312 28.167969 L 31.445312 43.832031 L 45.068359 35.9375 L 31.445312 28.167969 z"/></svg>